<?xml version="1.0" encoding="UTF-8"?><svg id="Sticker" xmlns="http://www.w3.org/2000/svg" viewBox="0 0 432 180.19"><defs><style>.cls-1,.cls-2,.cls-3,.cls-4,.cls-5{fill:#fff;}.cls-6{fill:none;}.cls-6,.cls-7,.cls-4{stroke:#fff;stroke-miterlimit:10;}.cls-2{font-size:12px;}.cls-2,.cls-3{font-family:Tahoma, Tahoma;}.cls-3{font-size:8px;}.cls-7{fill:#2e429b;}.cls-8{letter-spacing:0em;}.cls-9{letter-spacing:0em;}.cls-5{font-family:Tahoma-Bold, Tahoma;font-size:24px;font-weight:700;}</style></defs><polygon class="cls-7" points="291.35 9.88 291.35 169.59 418.91 125.17 418.91 54.3 291.35 9.88"/><text class="cls-5" transform="translate(320.26 64.24)"><tspan x="0" y="0">BCam</tspan></text><text class="cls-2" transform="translate(306.81 86.04)"><tspan x="0" y="0">Dig</tspan><tspan class="cls-9" x="17.51" y="0">i</tspan><tspan x="20.28" y="0">tal Magnetic </tspan><tspan x="12.05" y="14.4">Field Viewer</tspan></text><circle class="cls-6" cx="299.88" cy="128.51" r="5.09"/><circle class="cls-4" cx="299.88" cy="128.51" r="1.24"/><circle class="cls-6" cx="299.88" cy="141.21" r="5.09"/><line class="cls-6" x1="303.48" y1="137.61" x2="296.28" y2="144.81"/><line class="cls-6" x1="296.28" y1="137.61" x2="303.48" y2="144.81"/><text class="cls-3" transform="translate(309.23 144.65)"><tspan class="cls-8" x="0" y="0">I</tspan><tspan x="2.95" y="0">nto </tspan><tspan class="cls-9" x="16.93" y="0">S</tspan><tspan x="21.4" y="0">c</tspan><tspan class="cls-8" x="25.09" y="0">r</tspan><tspan x="27.93" y="0">een</tspan></text><text class="cls-3" transform="translate(308.91 131.95)"><tspan x="0" y="0">Out of </tspan><tspan class="cls-9" x="24.69" y="0">S</tspan><tspan x="29.16" y="0">c</tspan><tspan class="cls-8" x="32.85" y="0">r</tspan><tspan x="35.7" y="0">een</tspan></text><text class="cls-3" transform="translate(309.23 119.25)"><tspan class="cls-8" x="0" y="0">I</tspan><tspan x="2.95" y="0">n Plane of </tspan><tspan class="cls-9" x="40.91" y="0">S</tspan><tspan x="45.38" y="0">c</tspan><tspan class="cls-8" x="49.07" y="0">r</tspan><tspan x="51.91" y="0">een</tspan></text><polyline class="cls-6" points="294.79 123.4 296.48 121.3 304.22 111.66"/><path class="cls-1" d="m303.68,120c-.27-.03-.47-.28-.44-.55l.84-7.6-7.24,2.46c-.26.09-.55-.05-.63-.31s.05-.55.31-.63l7.99-2.71c.16-.05.34-.02.47.08.13.11.2.27.18.44l-.92,8.38c-.01.1-.05.19-.11.26-.1.13-.27.2-.44.18Z"/></svg>